<svg width="32" height="32" viewBox="0 0 32 32" fill="none" xmlns="http://www.w3.org/2000/svg">
  <!-- 圆形背景 -->
  <circle cx="16" cy="16" r="16" fill="url(#gradient)"/>
  
  <!-- 渐变定义 -->
  <defs>
    <linearGradient id="gradient" x1="0%" y1="0%" x2="100%" y2="100%">
      <stop offset="0%" style="stop-color:#6366F1;stop-opacity:1" />
      <stop offset="100%" style="stop-color:#8B5CF6;stop-opacity:1" />
    </linearGradient>
  </defs>
  
  <!-- 文档图标 -->
  <g transform="translate(8, 8)">
    <!-- 文档主体 -->
    <path d="M2 2C2 0.895431 2.89543 0 4 0H10L14 4V14C14 15.1046 13.1046 16 12 16H4C2.89543 16 2 15.1046 2 14V2Z" fill="white"/>
    
    <!-- 文档右上角折痕 -->
    <path d="M10 0L14 4H12C10.8954 4 10 3.10457 10 2V0Z" fill="white" fill-opacity="0.8"/>
    
    <!-- 文档内容线条 -->
    <rect x="4" y="6" width="6" height="1" rx="0.5" fill="#6366F1" fill-opacity="0.3"/>
    <rect x="4" y="8" width="8" height="1" rx="0.5" fill="#6366F1" fill-opacity="0.3"/>
    <rect x="4" y="10" width="7" height="1" rx="0.5" fill="#6366F1" fill-opacity="0.3"/>
  </g>
</svg> 